<?xml version="1.0" standalone="no"?>
<!DOCTYPE svg PUBLIC "-//W3C//DTD SVG 20010904//EN"
 "http://www.w3.org/TR/2001/REC-SVG-20010904/DTD/svg10.dtd">
<svg version="1.0" xmlns="http://www.w3.org/2000/svg"
 width="24.000000pt" height="24.000000pt" viewBox="0 0 24.000000 24.000000"
 preserveAspectRatio="xMidYMid meet">

<g transform="translate(0.000000,24.000000) scale(0.100000,-0.100000)"
fill="#000000" stroke="none">
<path d="M0 120 l0 -120 120 0 120 0 0 120 0 120 -120 0 -120 0 0 -120z m177
66 c22 -19 28 -32 28 -65 0 -50 -26 -79 -78 -88 -31 -5 -40 -1 -67 25 -35 36
-40 78 -11 113 15 18 22 21 31 13 9 -9 9 -17 0 -34 -17 -32 -5 -68 26 -76 46
-12 84 47 50 75 -12 10 -15 8 -18 -11 -5 -36 -32 -28 -36 10 -2 19 -1 40 2 48
8 21 42 17 73 -10z"/>
</g>
</svg>
