<svg xmlns="http://www.w3.org/2000/svg" width="31" height="31" viewBox="0 0 31 31">
  <g transform="translate(-7070 -5911)">
    <rect width="31" height="31" rx="4" transform="translate(7070 5911)" fill="#7288d5"/>
    <path d="M7.24,0A8.575,8.575,0,0,0,2.468,1.783,22.628,22.628,0,0,0,0,11.689a6.223,6.223,0,0,0,5.227,2.588s.634-.754,1.148-1.4a5.357,5.357,0,0,1-3-2s.171.12.48.291c.017,0,.034.017.069.034.051.034.1.051.154.086a10.043,10.043,0,0,0,1.251.583,13.048,13.048,0,0,0,2.519.737,12.005,12.005,0,0,0,4.439.017,12.29,12.29,0,0,0,2.485-.737,9.807,9.807,0,0,0,1.971-1.011,5.434,5.434,0,0,1-3.1,2.022c.514.634,1.131,1.371,1.131,1.371A6.281,6.281,0,0,0,20,11.689a22.628,22.628,0,0,0-2.468-9.906A8.457,8.457,0,0,0,12.733,0l-.24.274A11.253,11.253,0,0,1,16.76,2.433,14.246,14.246,0,0,0,11.6.806,14.5,14.5,0,0,0,8.141.84,1.688,1.688,0,0,0,7.85.874a13.428,13.428,0,0,0-3.89,1.08c-.634.274-1.011.48-1.011.48A11.244,11.244,0,0,1,7.438.206L7.266,0ZM6.8,6.324A1.8,1.8,0,0,1,8.552,8.21,1.81,1.81,0,0,1,6.8,10.095,1.822,1.822,0,0,1,5.056,8.21,1.81,1.81,0,0,1,6.8,6.324Zm6.255,0A1.822,1.822,0,0,1,14.807,8.21a1.81,1.81,0,0,1-1.748,1.885A1.822,1.822,0,0,1,11.311,8.21a1.81,1.81,0,0,1,1.748-1.886Z" transform="translate(7076 5919)" fill="#f5f7fa"/>
  </g>
</svg>
