<svg xmlns="http://www.w3.org/2000/svg" width="31" height="31" viewBox="0 0 31 31">
  <g transform="translate(-7267 -5871)">
    <rect width="31" height="31" rx="4" transform="translate(7267 5871)" fill="#08d7d7"/>
    <g transform="translate(7272.3 5876.8)">
      <path d="M9.489,14.4a.756.756,0,0,1-.226.568l-.7.6L2.2,9.636V7.308l6.991,6.524a.822.822,0,0,1,.3.568Zm9.692-6.921V9.636l-7.917,7.575a.589.589,0,0,1-.428.179.63.63,0,0,1-.444-.179l-.724-.646L19.181,7.48Zm-6.033,3.846-2.2,2.071L4.009,6.841A1.688,1.688,0,0,1,3.464,5.6,1.71,1.71,0,0,1,4,4.365L6.2,2.286l6.952,6.563a1.689,1.689,0,0,1-.008,2.476ZM11.856,5.611l2.289-2.156a1.923,1.923,0,0,1,1.316-.514,1.887,1.887,0,0,1,1.316.514l2.359,2.227-3.6,3.394L14.223,7.837Zm8.789-.343L15.476.3,15.367.2l-.109.1L10.743,4.606,6.71.776,6.7.768h0L6.2.363,6.1.286,6,.379.747,5.26.7,5.3v4.928l.047.039,9.848,9.3.109.1.109-.1,9.84-9.3.047-.039V5.307l-.054-.039Z" fill="#fff"/>
    </g>
  </g>
</svg>
